HIERARCHY
ROOT Hips
{
	OFFSET 0.00000 0.00000 0.00000
	CHANNELS 6 Xposition Yposition Zposition Yrotation Zrotation Xrotation 
	JOINT Lumbar
	{
		OFFSET 0 0 0
		CHANNELS 3 Zrotation Xrotation Yrotation
		JOINT Neck
		{
			OFFSET 0.00 0.2701 0.00
			CHANNELS 3 Zrotation Xrotation Yrotation
			End Site
			{
				OFFSET 0.00 0.1379 0.00
			}
		}
		JOINT RightShoulder
		{
			OFFSET 0.0119 0.2289 0.1181
			CHANNELS 3 Zrotation Xrotation Yrotation
			JOINT RightElbow
			{
				OFFSET 0.00 -0.1475 0.00
				CHANNELS 2 Zrotation Yrotation
				JOINT RightWrist
				{
					OFFSET 0.00 -0.1605 0.00
					CHANNELS 2 Zrotation Xrotation
					End Site
					{
						OFFSET 0.0040 -0.1068 0.0006
					}
				}
			}
		}
		JOINT LeftShoulder
		{
			OFFSET 0.0119 0.2289 -0.1181
			CHANNELS 3 Zrotation Xrotation Yrotation
			JOINT LeftElbow
			{
				OFFSET 0.00 -0.1475 0.00
				CHANNELS 2 Zrotation Yrotation
				JOINT LeftWrist
				{
					OFFSET 0.00 -0.1605 0.00
					CHANNELS 2 Zrotation Xrotation
					End Site
					{
						OFFSET 0.0040 -0.1068 -0.0006
					}
				}
			}
		}
	}
	JOINT RightHip
	{
		OFFSET 0.0316 -0.0424 0.0458
		CHANNELS 3 Zrotation Xrotation Yrotation
		JOINT RightKnee
		{
			OFFSET 0.00 -0.2438 0.00
			CHANNELS 1 Zrotation
			JOINT RightAnkle
			{
				OFFSET 0.00 -0.2449 0.00
				CHANNELS 3 Zrotation Xrotation Yrotation
				End Site
				{
					OFFSET 0.1237 -0.0542 0.0051
				}
			}
		}
	}
	JOINT LeftHip
	{
		OFFSET 0.0316 -0.0424 -0.0458
		CHANNELS 3 Zrotation Xrotation Yrotation
		JOINT LeftKnee
		{
			OFFSET 0.00 -0.2438 0.00
			CHANNELS 1 Zrotation
			JOINT LeftAnkle
			{
				OFFSET 0.00 -0.2449 0.00
				CHANNELS 3 Zrotation Xrotation Yrotation
				End Site
				{
					OFFSET 0.1237 -0.0542 -0.0051
				}
			}
		}
	}
}
MOTION
Frames: 14
Frame Time: 0.02
0 0.57926 -0 167.80022 0 -5.38484 8.9072 8.60155 -14.52321 -27.301 15.62186 5.40931 26.78988 -31.42504 16.79974 9.81375 80.96664 -2.93955 -2.70018 27.13331 -0.41231 -6.94848 14.55041 -85.48075 -0.5071 7.74748 -2.55898 10.7256 19.11872 -7.39872 -12.56337 -1.14418 -20.28007 -8.53885 9.9726 25.8113 -3.37559 -5.63686 3.60442 8.36388
-0.0013 0.5794 0.00193 167.60744 0 -5.44305 9.23976 8.69153 -14.62252 -27.15639 15.53585 5.25109 26.91576 -31.24072 16.83646 9.93103 80.94382 -2.99637 -2.79455 26.86052 -0.42706 -7.74071 14.54697 -85.19285 -0.42471 7.71562 -2.53217 10.4309 16.72361 -7.47692 -12.42417 -1.43081 -17.7968 -8.56911 9.85407 25.99826 -3.58409 -5.44675 3.58053 8.3591
-0.00259 0.57954 0.00385 167.41486 0 -5.50105 9.57126 8.78127 -14.72079 -27.01259 15.4495 5.09292 27.04071 -31.05612 16.87106 10.0476 80.92102 -3.05267 -2.88834 26.58593 -0.44165 -8.5334 14.54332 -84.90661 -0.34323 7.68393 -2.50568 10.13805 14.35538 -7.55487 -12.28679 -1.7149 -15.33974 -8.59997 9.73517 26.18382 -3.79048 -5.25768 3.55704 8.3554
-0.00388 0.57967 0.00578 167.22112 0 -5.55881 9.90109 8.87092 -14.81678 -26.86936 15.36342 4.93444 27.16337 -30.87184 16.90348 10.16303 80.89834 -3.10769 -2.98087 26.30395 -0.45833 -9.32903 14.53527 -84.62465 -0.26327 7.6476 -2.48062 9.8517 12.08984 -7.63228 -12.15716 -1.99087 -12.9811 -8.63375 9.61423 26.36532 -3.98992 -5.07156 3.53488 8.3565
-0.00519 0.57981 0.0077 167.03341 0 -5.61787 10.23891 8.96107 -14.92598 -26.72156 15.27884 4.77888 27.29839 -30.68981 16.95464 10.28522 80.87537 -3.16981 -3.08024 26.06405 -0.46705 -10.10115 14.54628 -84.32053 -0.17366 7.62985 -2.4485 9.53325 9.30249 -7.71218 -11.98863 -2.30892 -10.12243 -8.65238 9.50483 26.56801 -4.22554 -4.8706 3.5056 8.33276
-0.00647 0.57994 0.00965 166.8332 0 -5.67412 10.56007 9.05005 -15.00637 -26.58462 15.18918 4.6164 27.40699 -30.50052 16.9612 10.39246 80.85279 -3.21664 -3.16493 25.73341 -0.49048 -10.92761 14.51984 -84.06323 -0.10564 7.57688 -2.431 9.28145 7.60655 -7.78697 -11.90107 -2.53829 -8.30974 -8.70282 9.37064 26.72589 -4.38485 -4.7007 3.49148 8.36119
-0.00768 0.58002 0.0117 166.59118 0 -5.72388 10.83783 9.13816 -15.01231 -26.46705 15.09913 4.43685 27.44451 -30.3073 16.88084 10.46399 80.83267 -3.22267 -3.21074 25.15111 -0.57428 -11.88688 14.36133 -83.93625 -0.0884 7.38689 -2.45778 9.22702 9.11916 -7.84742 -12.05586 -2.51463 -9.56747 -8.84727 9.16572 26.7577 -4.32646 -4.61927 3.51977 8.54338
-0.00887 0.5801 0.01379 166.33776 0 -5.77059 11.09859 9.2247 -14.98785 -26.3628 15.00122 4.24965 27.45535 -30.10335 16.74818 10.51931 80.81268 -3.21302 -3.24143 24.47734 -0.6691 -12.9048 14.17019 -83.85659 -0.0946 7.1681 -2.49865 9.23755 11.70194 -7.90285 -12.28939 -2.40281 -11.85157 -9.02275 8.936 26.74454 -4.19236 -4.56859 3.56329 8.77676
-0.01006 0.58017 0.01586 166.09379 0 -5.81793 11.36578 9.31054 -14.97447 -26.25857 14.89809 4.06451 27.47687 -29.89387 16.61638 10.57872 80.79165 -3.20966 -3.27809 23.84461 -0.74653 -13.90896 14.01231 -83.75394 -0.09574 6.98858 -2.53053 9.20943 13.66746 -7.9608 -12.47457 -2.3367 -13.54629 -9.18033 8.7188 26.75372 -4.09719 -4.50198 3.59955 8.98053
-0.01128 0.58025 0.01793 165.83118 0 -5.86853 11.6384 9.40245 -14.97422 -26.12656 14.83263 3.88574 27.50333 -29.72927 16.58339 10.65264 80.77466 -3.20985 -3.31874 23.21179 -0.87745 -14.86046 13.77632 -83.65595 -0.07309 6.70005 -2.5732 9.21916 16.1755 -8.01765 -12.7117 -2.24718 -15.74972 -9.35433 8.49619 26.75563 -3.98247 -4.44366 3.63727 9.21065
-0.01243 0.58033 0.02001 165.6055 0 -5.91154 11.89569 9.48118 -14.93741 -26.05829 14.68617 3.69141 27.5146 -29.46745 16.32955 10.69161 80.74944 -3.1989 -3.34725 22.56046 -0.89804 -15.93317 13.6957 -83.56151 -0.1058 6.62989 -2.59691 9.16638 17.82021 -8.07568 -12.86069 -2.18496 -17.15011 -9.50097 8.27915 26.76104 -3.89108 -4.37535 3.67552 9.39857
-0.01334 0.58039 0.02205 165.47798 0 -5.93492 12.11461 9.52543 -14.8243 -26.13896 14.32274 3.45939 27.4776 -28.94896 15.49991 10.64556 80.69997 -3.16099 -3.34789 21.85371 -0.62328 -17.34607 14.04878 -83.45635 -0.28657 7.18485 -2.56359 8.91723 16.7115 -8.1373 -12.73536 -2.22423 -15.97209 -9.56906 8.08193 26.79505 -3.87739 -4.27236 3.71212 9.4529
-0.01417 0.58045 0.02409 165.38956 0 -5.95062 12.31854 9.55623 -14.67232 -26.28747 13.87667 3.21101 27.42823 -28.33069 14.44523 10.56356 80.64239 -3.1123 -3.33647 21.13626 -0.23419 -18.87422 14.5601 -83.36055 -0.52404 7.95724 -2.511 8.6043 14.7165 -8.20034 -12.52076 -2.29321 -13.97067 -9.60766 7.89144 26.83241 -3.89071 -4.15824 3.7487 9.46379
-0.01503 0.58051 0.02613 165.28718 0 -5.96951 12.52971 9.59212 -14.52677 -26.42088 13.46592 2.96825 27.39348 -27.75284 13.48043 10.49298 80.58962 -3.06868 -3.32928 20.44142 0.10958 -20.33793 15.00101 -83.25907 -0.73241 8.62079 -2.46792 8.32584 13.19876 -8.26343 -12.35476 -2.3456 -12.41873 -9.65675 7.69898 26.86336 -3.89521 -4.04889 3.78478 9.49763
